HIERARCHY
ROOT Hip
{
	OFFSET 0 1.131 0.0052
	CHANNELS 6 Xposition Yposition Zposition Xrotation Yrotation Zrotation
	JOINT Abdomen
	{
		OFFSET 0 -0.047353 -0.05
		CHANNELS 3 Xrotation Zrotation Yrotation
		JOINT Chest
		{
			OFFSET 0 0.132153 0.007439
			CHANNELS 3 Xrotation Zrotation Yrotation
			JOINT Neck
			{
				OFFSET 0 0.3078 0.006161
				CHANNELS 3 Xrotation Zrotation Yrotation
				JOINT Head_comp
				{
					OFFSET 0 0.0884 0.013
					CHANNELS 3 Xrotation Yrotation Zrotation
					End Site
					{
						OFFSET -0 0.156 0.0624
					}
				}
			}
			JOINT Left_Collar
			{
				OFFSET 0.02282 0.250342 0.017193
				CHANNELS 2 Yrotation Zrotation
				JOINT Left_Shoulder
				{
					OFFSET 0.15421 0 0
					CHANNELS 3 Xrotation Yrotation Zrotation
					JOINT Left_Forearm
					{
						OFFSET 0.265212 0 0
						CHANNELS 2 Yrotation Xrotation
						JOINT Left_Hand
						{
							OFFSET 0.27571 0 0
							CHANNELS 2 Zrotation Yrotation
							JOINT L1ProxPhalanx
							{
								OFFSET 0.014142 0.001733 0.014142
								CHANNELS 3 Yrotation Zrotation Xrotation
								JOINT L1MidPhalanx
								{
									OFFSET 0.04 0 0
									CHANNELS 1 Zrotation
									JOINT L1DistPhalanx
									{
										OFFSET 0.035 0 0
										CHANNELS 1 Zrotation
										End Site
										{
											OFFSET 0.029 -0 -0
										}
									}
								}
							}
							JOINT L2ProxPhalanx
							{
								OFFSET 0.0821037 0.001578 0.0219996
								CHANNELS 2 Yrotation Zrotation
								JOINT L2MidPhalanx
								{
									OFFSET 0.04 0 0
									CHANNELS 1 Zrotation
									JOINT L2DistPhalanx
									{
										OFFSET 0.028 0 0
										CHANNELS 1 Zrotation
										End Site
										{
											OFFSET 0.02 -0 -0
										}
									}
								}
							}
							JOINT L3ProxPhalanx
							{
								OFFSET 0.083 0 0
								CHANNELS 2 Yrotation Zrotation
								JOINT L3MidPhalanx
								{
									OFFSET 0.053 0 0
									CHANNELS 1 Zrotation
									JOINT L3DistPhalanx
									{
										OFFSET 0.03 0 0
										CHANNELS 1 Zrotation
										End Site
										{
											OFFSET 0.023 -0 -0
										}
									}
								}
							}
							JOINT L4ProxPhalanx
							{
								OFFSET 0.077274 -0.000761 -0.0207055
								CHANNELS 2 Yrotation Zrotation
								JOINT L4MidPhalanx
								{
									OFFSET 0.05 0 0
									CHANNELS 1 Zrotation
									JOINT L4DistPhalanx
									{
										OFFSET 0.03 0 0
										CHANNELS 1 Zrotation
										End Site
										{
											OFFSET 0.023 -0 -0
										}
									}
								}
							}
							JOINT L5ProxPhalanx
							{
								OFFSET 0.0675499 -0.001644 -0.039
								CHANNELS 2 Yrotation Zrotation
								JOINT L5MidPhalanx
								{
									OFFSET 0.04 0 0
									CHANNELS 1 Zrotation
									JOINT L5DistPhalanx
									{
										OFFSET 0.021 0 0
										CHANNELS 1 Zrotation
										End Site
										{
											OFFSET 0.022 -0 -0
										}
									}
								}
							}
						}
					}
				}
			}
			JOINT Right_Collar
			{
				OFFSET -0.02282 0.250342 0.017193
				CHANNELS 2 Yrotation Zrotation
				JOINT Right_Shoulder
				{
					OFFSET -0.15421 0 0
					CHANNELS 3 Xrotation Yrotation Zrotation
					JOINT Right_Forearm
					{
						OFFSET -0.265212 0 0
						CHANNELS 2 Yrotation Xrotation
						JOINT Right_Hand
						{
							OFFSET -0.27571 3e-006 0
							CHANNELS 2 Zrotation Yrotation
							JOINT R1ProxPhalanx
							{
								OFFSET -0.014142 0.001733 0.014142
								CHANNELS 3 Yrotation Zrotation Xrotation
								JOINT R1MidPhalanx
								{
									OFFSET -0.04 0 0
									CHANNELS 1 Zrotation
									JOINT R1DistPhalanx
									{
										OFFSET -0.035 0 0
										CHANNELS 1 Zrotation
										End Site
										{
											OFFSET -0.029 -0 -0
										}
									}
								}
							}
							JOINT R2ProxPhalanx
							{
								OFFSET -0.0821037 0.001578 0.0219996
								CHANNELS 2 Yrotation Zrotation
								JOINT R2MidPhalanx
								{
									OFFSET -0.04 0 0
									CHANNELS 1 Zrotation
									JOINT R2DistPhalanx
									{
										OFFSET -0.028 0 0
										CHANNELS 1 Zrotation
										End Site
										{
											OFFSET -0.02 -0 -0
										}
									}
								}
							}
							JOINT R3ProxPhalanx
							{
								OFFSET -0.083 0 0
								CHANNELS 2 Yrotation Zrotation
								JOINT R3MidPhalanx
								{
									OFFSET -0.053 0 0
									CHANNELS 1 Zrotation
									JOINT R3DistPhalanx
									{
										OFFSET -0.03 0 0
										CHANNELS 1 Zrotation
										End Site
										{
											OFFSET -0.023 -0 -0
										}
									}
								}
							}
							JOINT R4ProxPhalanx
							{
								OFFSET -0.077274 -0.000761 -0.0207055
								CHANNELS 2 Yrotation Zrotation
								JOINT R4MidPhalanx
								{
									OFFSET -0.05 0 0
									CHANNELS 1 Zrotation
									JOINT R4DistPhalanx
									{
										OFFSET -0.03 0 0
										CHANNELS 1 Zrotation
										End Site
										{
											OFFSET -0.023 -0 -0
										}
									}
								}
							}
							JOINT R5ProxPhalanx
							{
								OFFSET -0.0675499 -0.001644 -0.039
								CHANNELS 2 Yrotation Zrotation
								JOINT R5MidPhalanx
								{
									OFFSET -0.04 0 0
									CHANNELS 1 Zrotation
									JOINT R5DistPhalanx
									{
										OFFSET -0.021 0 0
										CHANNELS 1 Zrotation
										End Site
										{
											OFFSET -0.022 -0 -0
										}
									}
								}
							}
						}
					}
				}
			}
		}
	}
	JOINT Left_Thigh
	{
		OFFSET 0.1118 -0.1612 -0.0442
		CHANNELS 3 Xrotation Zrotation Yrotation
		JOINT Left_Shin
		{
			OFFSET 0 -0.477856 0
			CHANNELS 1 Xrotation
			JOINT Left_Foot
			{
				OFFSET 0 -0.431952 0
				CHANNELS 2 Xrotation Zrotation
				JOINT Left_Toe
				{
					OFFSET 0 -0.0442 0.119
					CHANNELS 1 Xrotation
					End Site
					{
						OFFSET -0 -0 0.07
					}
				}
			}
		}
	}
	JOINT Right_Thigh
	{
		OFFSET -0.1118 -0.1612 -0.0442
		CHANNELS 3 Xrotation Zrotation Yrotation
		JOINT Right_Shin
		{
			OFFSET 0 -0.477856 0
			CHANNELS 1 Xrotation
			JOINT Right_Foot
			{
				OFFSET 0 -0.431952 0
				CHANNELS 2 Xrotation Zrotation
				JOINT Right_Toe
				{
					OFFSET 0 -0.0442 0.119
					CHANNELS 1 Xrotation
					End Site
					{
						OFFSET -0 -0 0.07
					}
				}
			}
		}
	}
}
MOTION
Frames: 6
Frame Time: 0.009975
-0.105828 -0.0600752 0.0497589 1.17322e-013 5.99538e-008 -5.10909e-006 0 -0 0 0 -0 0 0 -0 0 -0.712769 0.3035 -1.39201e-011 0.169023 -19.8637 -13.5334 -22.0212 -24.437 -44.2669 10.8496 7.26442 -12.8545 -3.21269 -76.5504 143.223 -6.85137 3.8921 -1.9574 -40.0438 -1.3095 -4.17274 -3.55618 0.168106 -2.45656 -3.45843 -5.13863 2.11479 -11.3541 -1.59935 3.75975 5.04747 -41.6929 23.67 0.0142391 5.85309 27.5368 9.02614 60.6879 84.6142 1.36649 -0.978516 1.56236 37.9386 28.008 73.698 26.2405 28.4472 13.118 18.2167 29.0248 19.6359 0 22.4358 32.6146 28.1246 -8.63175 30.7051 32.2053 23.7634 -7.83088 26.7354 35.1526 30.0193 0.666175 -0.376075 -0.00437262 0.0240216 -0.690183 0.376105 0 0.67758 -0.376074 -0.00444748 1.21346e-006 -0.677567 0.376105 0 
-0.105966 -0.0600763 0.0499228 -4.24076e-013 6.08964e-008 -5.10907e-006 0 -0 0 0 -0 0 0 -0 0 -0.712784 0.303911 -1.33138e-011 0.169023 -19.8637 -13.5334 -22.0212 -24.437 -44.2669 10.8496 7.26442 -12.8545 -3.21269 -76.5504 143.223 -6.85137 3.8921 -1.9574 -40.0438 -1.3095 -4.17274 -3.55618 0.168106 -2.45656 -3.45843 -5.13863 2.11479 -11.3541 -1.59935 3.75975 5.04747 -41.6929 23.67 0.0120863 5.55581 28.0913 9.35375 61.6867 84.4418 1.1599 -0.830578 1.32615 37.9386 28.008 73.698 26.2405 28.4472 13.118 18.2167 29.0248 19.6359 0 22.4358 32.6146 28.1246 -8.63175 30.7051 32.2053 23.7634 -7.83088 26.7354 35.1526 30.0193 0.676499 -0.367395 -0.00433792 0.0240216 -0.700506 0.367426 0 0.687903 -0.367394 -0.00441105 1.40167e-006 -0.68789 0.367426 0 
-0.106101 -0.0600773 0.0500792 -6.2933e-013 6.17991e-008 -5.10905e-006 0 -0 0 0 -0 0 0 -0 0 -0.712798 0.304316 -1.25648e-011 0.169023 -19.8637 -13.5334 -22.0212 -24.437 -44.2669 10.8496 7.26442 -12.8545 -3.21269 -76.5504 143.223 -6.85137 3.8921 -1.9574 -40.0438 -1.3095 -4.17274 -3.55618 0.168106 -2.45656 -3.45843 -5.13863 2.11479 -11.3541 -1.59935 3.75975 5.04747 -41.6929 23.67 0.0100177 5.27011 28.596 9.67249 62.6556 84.2369 0.961375 -0.688419 1.09917 37.9386 28.008 73.698 26.2405 28.4472 13.118 18.2167 29.0248 19.6359 0 22.4358 32.6146 28.1246 -8.63175 30.7051 32.2053 23.7634 -7.83088 26.7354 35.1526 30.0193 0.686347 -0.358921 -0.00429959 0.0240216 -0.710355 0.358952 0 0.697751 -0.358921 -0.00437103 2.27803e-006 -0.69774 0.358952 0 
-0.106231 -0.0600783 0.050227 -7.10396e-013 6.26565e-008 -5.10904e-006 0 -0 0 0 -0 0 0 -0 0 -0.712812 0.304713 -1.16559e-011 0.169023 -19.8637 -13.5334 -22.0212 -24.437 -44.2669 10.8496 7.26442 -12.8545 -3.21269 -76.5504 143.223 -6.85137 3.8921 -1.9574 -40.0438 -1.3095 -4.17274 -3.55618 0.168106 -2.45656 -3.45843 -5.13863 2.11479 -11.3541 -1.59935 3.75975 5.04747 -41.6929 23.67 0.0080497 4.9983 29.05 9.97765 63.586 84.0063 0.772512 -0.553179 0.88324 37.9386 28.008 73.698 26.2405 28.4472 13.118 18.2167 29.0248 19.6359 0 22.4358 32.6146 28.1246 -8.63175 30.7051 32.2053 23.7634 -7.83088 26.7354 35.1526 30.0193 0.695652 -0.350731 -0.00425846 0.0240216 -0.719661 0.350762 0 0.707058 -0.35073 -0.00432828 8.70849e-007 -0.707045 0.350762 0 
-0.106355 -0.0600793 0.0503648 -1.11901e-012 6.34618e-008 -5.10902e-006 0 -0 0 0 -0 0 0 -0 0 -0.712825 0.305096 -1.05683e-011 0.169023 -19.8637 -13.5334 -22.0212 -24.437 -44.2669 10.8496 7.26442 -12.8545 -3.21269 -76.5504 143.223 -6.85137 3.8921 -1.9574 -40.0438 -1.3095 -4.17274 -3.55618 0.168106 -2.45656 -3.45843 -5.13863 2.11479 -11.3541 -1.59935 3.75975 5.04747 -41.6929 23.67 0.00620319 4.74326 29.4523 10.2644 64.4666 83.7581 0.595307 -0.426286 0.680635 37.9386 28.008 73.698 26.2405 28.4472 13.118 18.2167 29.0248 19.6359 0 22.4358 32.6146 28.1246 -8.63175 30.7051 32.2053 23.7634 -7.83088 26.7354 35.1526 30.0193 0.704332 -0.342919 -0.00421559 0.0240216 -0.728341 0.34295 0 0.715737 -0.342918 -0.00428384 1.17723e-006 -0.715725 0.34295 0 
-0.106471 -0.0600802 0.050491 9.34417e-013 6.42068e-008 -5.10901e-006 0 -0 0 0 -0 0 0 -0 0 -0.712838 0.305463 -9.28479e-012 0.169023 -19.8637 -13.5334 -22.0212 -24.437 -44.2669 10.8496 7.26442 -12.8545 -3.21269 -76.5504 143.223 -6.85137 3.8921 -1.9574 -40.0438 -1.3095 -4.17274 -3.55618 0.168106 -2.45656 -3.45843 -5.13863 2.11479 -11.3541 -1.59935 3.75975 5.04747 -41.6929 23.67 0.00450489 4.5087 29.8015 10.5274 65.2832 83.5023 0.432325 -0.309578 0.494292 37.9386 28.008 73.698 26.2405 28.4472 13.118 18.2167 29.0248 19.6359 0 22.4358 32.6146 28.1246 -8.63175 30.7051 32.2053 23.7634 -7.83088 26.7354 35.1526 30.0193 0.712278 -0.335608 -0.00417228 0.0240216 -0.736287 0.335639 0 0.723683 -0.335607 -0.00423908 2.41484e-006 -0.723672 0.335639 0 
